Coordinates
version=1
nRows=22
nColumns=24
inDegrees=yes

Units are S.I. units (second, meters, Newtons, ...)
Angles are in degrees.

endheader
time	pelvis_tilt	pelvis_list	pelvis_rotation	pelvis_tx	pelvis_ty	pelvis_tz	hip_flexion_r	hip_adduction_r	hip_rotation_r	knee_angle_r	ankle_angle_r	subtalar_angle_r	mtp_angle_r	hip_flexion_l	hip_adduction_l	hip_rotation_l	knee_angle_l	ankle_angle_l	subtalar_angle_l	mtp_angle_l	lumbar_extension	lumbar_bending	lumbar_rotation
      1.74166667	     -0.33279819	      3.95484136	     -0.21755114	      1.46929386	      1.02237168	      0.22267808	     12.88444391	     -2.99356721	     -1.10943128	    -62.90954284	      4.24222409	    -18.13284779	      2.45769935	      5.60905227	      8.18699357	      3.65463476	     -9.77220967	      1.87564806	    -16.13492269	      6.78361153	      0.26039276	     -5.84121654	      2.81875832
      1.74583333	     -0.32847706	      3.86068119	      0.01317692	      1.47410579	      1.02291812	      0.22223397	     13.38847437	     -2.90744201	     -1.29112634	    -62.54016581	      4.40174080	    -18.24283636	      2.34187704	      5.09642802	      8.10915649	      3.95918547	     -9.37936648	      1.88385498	    -16.16053705	      6.72104122	      0.23151757	     -5.72764072	      2.59755792
      1.75000000	     -0.32231042	      3.77090119	      0.24040551	      1.47886323	      1.02342535	      0.22179614	     13.88958294	     -2.83172660	     -1.47020136	    -62.15252402	      4.57753325	    -18.31712228	      2.21912046	      4.58918966	      8.03157825	      4.25445113	     -8.99561909	      1.89697417	    -16.19125421	      6.65244928	      0.19992535	     -5.62195527	      2.36676197
      1.75416667	     -0.32868586	      3.67275553	      0.47882167	      1.48365545	      1.02388598	      0.22135296	     14.39117773	     -2.75008676	     -1.65557780	    -61.73003370	      4.71953362	    -18.41376884	      2.10532566	      4.10622950	      7.94004117	      4.54492693	     -8.63302349	      1.92444053	    -16.20616680	      6.59292843	      0.18098455	     -5.50199896	      2.14551033
      1.75833333	     -0.32242979	      3.58330332	      0.70404576	      1.48839890	      1.02432371	      0.22093550	     14.87880540	     -2.68076002	     -1.83037946	    -61.28987350	      4.86631626	    -18.48757438	      1.99212696	      3.61178131	      7.85255320	      4.82611343	     -8.27195240	      1.95336508	    -16.21480147	      6.53070021	      0.14818435	     -5.39466851	      1.93338729
      1.76250000	     -0.32144670	      3.49891381	      0.92778734	      1.49315893	      1.02472433	      0.22052267	     15.36487809	     -2.62079694	     -2.00161597	    -60.82577870	      4.99881349	    -18.56550417	      1.86963080	      3.11700009	      7.76674647	      5.11565435	     -7.89190790	      1.96116308	    -16.24438872	      6.46473140	      0.12279964	     -5.28958188	      1.71417986
      1.76666667	     -0.34767180	      3.40842327	      1.15322178	      1.49789308	      1.02504411	      0.22012771	     15.87056645	     -2.55685991	     -2.17195478	    -60.33446486	      5.17289312	    -18.61103486	      1.83060619	      2.67868264	      7.66429555	      5.32447479	     -7.56307214	      1.99010834	    -16.13795270	      6.44489325	      0.12558729	     -5.18388083	      1.63061955
      1.77083333	     -0.32963393	      3.32867861	      1.36609562	      1.50264631	      1.02540660	      0.21973768	     16.31968694	     -2.50577706	     -2.32896363	    -59.81420115	      5.26440676	    -18.69083222	      1.69142821	      2.15341222	      7.57667561	      5.63927811	     -7.15151131	      1.97783482	    -16.26042361	      6.37196486	      0.07583923	     -5.08313427	      1.28802560
      1.77500000	     -0.35225319	      3.23944923	      1.58201074	      1.50741996	      1.02567090	      0.21936434	     16.80234786	     -2.44872492	     -2.48845649	    -59.27100474	      5.40316025	    -18.70955212	      1.64786511	      1.71344054	      7.46885253	      5.84717354	     -6.82368891	      2.02495417	    -16.17156464	      6.35027303	      0.08632381	     -4.96999145	      1.20786404
      1.77916667	     -0.34323390	      3.15402680	      1.79888170	      1.51212657	      1.02595555	      0.21899463	     17.24256510	     -2.39512703	     -2.64139048	    -58.69384475	      5.47083136	    -18.76561463	      1.53470092	      1.21585893	      7.36617126	      6.14939947	     -6.44493562	      2.05216771	    -16.26972748	      6.29225771	      0.05363076	     -4.86903758	      0.89744985
      1.78333333	     -0.34299572	      3.09500539	      2.00854555	      1.51688105	      1.02617482	      0.21864427	     17.68922733	     -2.37602625	     -2.78708646	    -58.11801241	      5.61009904	    -18.78623012	      1.36978508	      0.72682307	      7.28646850	      6.43142399	     -6.06251500	      2.01252894	    -16.34315880	      6.20051450	      0.03197082	     -4.80053460	      0.68756138
      1.78750000	     -0.33597469	      3.00012211	      2.20217994	      1.52158927	      1.02639837	      0.21832745	     18.11162403	     -2.31246745	     -2.92082929	    -57.48403941	      5.69089309	    -18.79043517	      1.30358503	      0.25705691	      7.15939892	      6.61509665	     -5.72905182	      2.07540628	    -16.28246735	      6.16681838	      0.00229092	     -4.68555089	      0.58850298
      1.79166667	     -0.37401942	      2.92392044	      2.39715421	      1.52637738	      1.02649150	      0.21801571	     18.57776471	     -2.27350779	     -3.04556422	    -56.85275919	      5.80216043	    -18.78845516	      1.25976236	     -0.16781886	      7.05148573	      6.80933722	     -5.39474669	      2.10825008	    -16.21938347	      6.14417093	      0.03159253	     -4.58411226	      0.47346918
      1.79583333	     -0.33795097	      2.86034977	      2.58446445	      1.53105910	      1.02667246	      0.21772524	     18.96217449	     -2.24356503	     -3.15657402	    -56.19705682	      5.85335243	    -18.80816791	      1.15989004	     -0.68835579	      6.95403409	      7.08052691	     -5.01129028	      2.12645609	    -16.30943995	      6.09227841	     -0.04663604	     -4.50483387	      0.20102607
      1.80000000	     -0.36005008	      2.79652781	      2.78110997	      1.53577236	      1.02673488	      0.21743765	     19.39249043	     -2.22063912	     -3.27343335	    -55.51944839	      5.94767123	    -18.80267971	      1.02868191	     -1.13610753	      6.85382724	      7.33271581	     -4.65378997	      2.10693718	    -16.37037889	      6.02156263	     -0.04566116	     -4.43700723	      0.00125308
      1.80416667	     -0.35568868	      2.72489125	      2.96494456	      1.54046941	      1.02680915	      0.21716982	     19.78462877	     -2.18574277	     -3.37706006	    -54.80949403	      5.99624443	    -18.78509398	      0.93324625	     -1.60116015	      6.73964070	      7.53447805	     -4.31635840	      2.15463209	    -16.36490913	      5.96852792	     -0.07709209	     -4.34348658	     -0.13224598
      1.80833333	     -0.39226869	      2.65746133	      3.17607849	      1.54516089	      1.02678054	      0.21688515	     20.20980465	     -2.17006826	     -3.50681059	    -54.08596872	      6.07700299	    -18.74122831	      0.89553457	     -1.99651784	      6.62709299	      7.71974173	     -4.02508945	      2.20011736	    -16.29103546	      5.94917005	     -0.05431875	     -4.26677682	     -0.22170813
      1.81250000	     -0.36092730	      2.60618038	      3.35564060	      1.54984317	      1.02681092	      0.21663938	     20.55806272	     -2.16096222	     -3.60416300	    -53.34720535	      6.11202041	    -18.72021524	      0.82304712	     -2.49470000	      6.52780121	      7.95122923	     -3.67887526	      2.24470207	    -16.33676067	      5.90965694	     -0.12838309	     -4.19516391	     -0.45705971
      1.81666667	     -0.36147315	      2.54890491	      3.53969912	      1.55453266	      1.02677481	      0.21639902	     20.92532521	     -2.14869892	     -3.69935545	    -52.57905927	      6.14808294	    -18.68454637	      0.75204173	     -2.94293073	      6.42024323	      8.16509955	     -3.35616531	      2.27738852	    -16.35461746	      5.87031511	     -0.15523322	     -4.12705973	     -0.61250526
      1.82083333	     -0.38249101	      2.49361398	      3.72140519	      1.55923965	      1.02666581	      0.21617437	     21.30300813	     -2.14156776	     -3.79398964	    -51.79343209	      6.18820960	    -18.63143010	      0.69166534	     -3.36535493	      6.31265837	      8.35900811	     -3.04836860	      2.33133412	    -16.34502981	      5.83348506	     -0.15274638	     -4.05883456	     -0.75264678
      1.82500000	     -0.36954269	      2.44922215	      3.90856138	      1.56388863	      1.02657871	      0.21594933	     21.63734441	     -2.14854028	     -3.89041119	    -50.98927136	      6.22026408	    -18.57417827	      0.63880660	     -3.81519594	      6.21188636	      8.55998030	     -2.74799827	      2.38056378	    -16.34218242	      5.80073111	     -0.20055304	     -4.00061478	     -0.91201416
      1.82916667	     -0.39640124	      2.40686759	      4.09117601	      1.56857403	      1.02640016	      0.21573978	     22.00257838	     -2.15985783	     -3.97726493	    -50.16657299	      6.23636479	    -18.51440096	      0.58860777	     -4.22101709	      6.11375701	      8.75545952	     -2.45868993	      2.43930309	    -16.33432789	      5.76720678	     -0.20164807	     -3.95006707	     -1.06345058
